<svg version="1.1" id="Layer_1" xmlns="http://www.w3.org/2000/svg" xmlns:xlink="http://www.w3.org/1999/xlink" x="0px" y="0px"
	 width="100%" viewBox="0 0 372 372" enable-background="new 0 0 372 372" xml:space="preserve">
<path fill="#224635" opacity="1.000000" stroke="none" 
	d="
M373.000000,139.000000 
	C373.000000,217.333298 373.000000,295.166595 373.000000,372.999939 
	C249.000076,372.999939 125.000145,372.999939 1.000162,372.999969 
	C1.000108,249.000122 1.000108,125.000237 1.000054,1.000262 
	C124.999840,1.000175 248.999680,1.000175 372.999756,1.000087 
	C373.000000,46.833332 373.000000,92.666664 373.000000,139.000000 
M215.946732,93.485779 
	C235.158493,87.464516 254.774994,84.886696 274.919495,86.102570 
	C281.876434,86.522476 288.901276,86.491753 295.853455,86.034103 
	C299.373505,85.802383 302.800842,84.161484 306.270081,83.157700 
	C305.527679,81.786316 305.086151,81.512741 304.653473,81.526062 
	C276.704895,82.385933 248.422363,78.253677 220.950699,86.360390 
	C220.949783,85.873756 220.948868,85.387123 221.657928,84.581383 
	C236.841446,79.638565 252.335236,77.496071 268.358368,78.295341 
	C279.822388,78.867195 291.337891,78.407272 302.830444,78.406181 
	C308.948059,78.405594 314.104736,74.562485 316.492218,68.049805 
	C316.663147,67.667763 316.834106,67.285713 317.908356,66.660835 
	C329.103699,68.169540 338.692841,63.976582 348.520660,57.918861 
	C346.803070,57.744770 345.720917,57.539803 344.638641,57.539246 
	C312.813293,57.522804 280.987946,57.518795 249.162628,57.549873 
	C247.511780,57.551483 245.831329,57.738411 244.215378,58.079426 
	C233.292801,60.384415 222.403702,62.853531 211.457199,65.036011 
	C208.576202,65.610428 207.334045,66.885368 206.629379,69.726051 
	C204.789108,77.144760 202.622284,84.486862 200.384094,91.797798 
	C200.039871,92.922218 198.628860,93.720039 197.711212,94.668915 
	C196.924652,93.757362 195.737930,92.967186 195.418442,91.913963 
	C193.729645,86.346252 191.714066,80.794876 190.848816,75.080803 
	C189.728867,67.684837 185.911377,64.625572 178.635193,63.674267 
	C166.621017,62.103493 154.768600,58.164825 142.772049,57.812836 
	C112.971863,56.938446 83.128792,57.525311 53.302948,57.525318 
	C51.561115,57.525322 49.819279,57.525318 47.024845,57.525318 
	C57.159370,64.209846 66.906548,67.859222 78.218452,67.307968 
	C78.716476,67.670105 79.214500,68.032242 79.489098,69.182106 
	C83.203705,75.255676 87.611282,78.992989 95.749451,78.624550 
	C111.996140,77.889023 128.343872,77.690559 144.561737,78.694214 
	C153.292542,79.234520 161.840912,82.722351 170.207611,85.818062 
	C168.938141,85.639961 167.656067,85.524696 166.401337,85.273125 
	C160.215332,84.032852 154.061203,81.832344 147.850616,81.666824 
	C129.541122,81.178864 111.210297,81.484566 92.887856,81.510971 
	C91.879913,81.512421 90.872383,81.797852 89.864662,81.951096 
	C89.801163,82.488899 89.737671,83.026703 89.674171,83.564499 
	C93.752693,84.432793 97.802933,85.836227 101.915855,86.053604 
	C109.556633,86.457443 117.258583,86.564751 124.891182,86.090027 
	C142.748810,84.979340 160.070648,87.523735 177.076508,92.758492 
	C178.572296,93.218925 179.965454,94.012772 181.406265,94.651756 
	C179.726074,96.182327 178.336609,96.567612 176.930420,96.876854 
	C123.099281,108.714890 88.545120,159.807251 99.031410,213.921555 
	C106.896553,254.509491 131.697601,281.516388 171.419098,292.411133 
	C211.203522,303.323120 246.513916,292.735474 273.677399,261.608490 
	C301.075653,230.212479 306.504395,193.715668 290.226318,155.341827 
	C276.205963,122.290245 250.068008,103.112450 215.023071,95.429886 
	C215.074615,94.881981 215.126144,94.334068 215.946732,93.485779 
M69.759514,189.304367 
	C49.130035,195.624771 28.500551,201.945175 6.566401,208.665298 
	C9.396834,210.159210 11.063497,211.098953 12.780238,211.935974 
	C38.380726,224.417740 63.987717,236.886154 89.593521,249.357025 
	C91.815636,250.439255 93.882721,251.126877 93.605293,254.646790 
	C91.669106,279.212799 89.995712,303.799683 88.270157,328.382080 
	C87.826813,334.698029 87.498024,341.022034 87.051514,348.420959 
	C109.000916,327.974701 129.991501,308.421600 151.115021,288.744659 
	C109.649216,264.665436 90.888649,229.270844 94.396530,181.778793 
	C86.099602,184.317093 78.312714,186.699341 69.759514,189.304367 
M310.217377,140.708954 
	C322.875214,128.905273 335.533051,117.101601 348.190857,105.297920 
	C347.961548,104.965645 347.732239,104.633362 347.502930,104.301086 
	C323.773285,111.565933 300.043640,118.830780 276.612640,126.004189 
	C282.855377,135.957016 288.796631,145.429199 294.809204,155.015076 
	C299.711121,150.464813 304.705444,145.828796 310.217377,140.708954 
M199.938599,17.588303 
	C199.374313,15.304134 198.810043,13.019967 198.245758,10.735799 
	C195.598694,19.041187 193.463943,27.104374 192.208435,35.302216 
	C191.396255,40.605396 189.086990,42.794445 183.823364,43.600121 
	C175.729370,44.839031 167.773285,46.979031 159.758698,48.736698 
	C167.927856,51.642372 175.982834,53.737610 184.167297,54.979519 
	C189.303711,55.758926 191.353210,58.041252 192.163544,63.066193 
	C193.503586,71.376068 195.644043,79.556862 197.447235,87.792053 
	C199.608749,82.201714 201.576691,76.737129 201.841171,71.191299 
	C202.401306,59.445770 207.867981,53.768547 219.704880,53.321373 
	C225.033401,53.120071 230.300217,51.285522 235.844284,50.140556 
	C235.297653,49.544155 235.135437,49.194370 234.900940,49.136257 
	C226.367798,47.021614 217.864746,44.760803 209.269379,42.935196 
	C206.188477,42.280827 204.744995,40.966991 204.175018,37.934971 
	C202.945786,31.396034 201.447693,24.907635 199.938599,17.588303 
M320.153717,187.155838 
	C322.348572,188.065155 324.543427,188.974472 327.306885,190.119370 
	C327.306885,187.171585 327.533783,185.155701 327.236755,183.220230 
	C326.988770,181.604187 326.549042,179.160645 325.469666,178.666595 
	C317.815338,175.163132 309.974365,172.067490 302.112549,168.808578 
	C300.027222,178.330643 300.313507,178.912155 308.389618,182.276169 
	C312.074799,183.811188 315.762878,185.339172 320.153717,187.155838 
M311.847351,219.784622 
	C308.537659,218.483109 305.227997,217.181595 301.328308,215.648056 
	C301.328308,218.330154 301.026154,220.210953 301.410309,221.939209 
	C301.823822,223.799530 302.413116,226.510178 303.734344,227.132126 
	C311.195831,230.644592 318.900299,233.640839 326.599243,236.845154 
	C328.571259,226.995819 328.433075,226.711060 320.385651,223.350143 
	C317.776672,222.260529 315.169464,221.166595 311.847351,219.784622 
M176.317368,300.621796 
	C171.201126,307.282806 166.084869,313.943848 160.614014,321.066559 
	C163.076294,321.793518 164.901062,322.529755 166.795059,322.831696 
	C168.438110,323.093597 171.015106,323.575012 171.710983,322.738281 
	C177.252747,316.074524 182.444275,309.119415 188.688461,301.028961 
	C183.693268,300.620972 180.245499,300.339386 176.317368,300.621796 
M218.065933,300.899750 
	C216.982590,309.372711 215.899231,317.845703 214.750687,326.828522 
	C217.566391,326.095245 219.635773,325.878143 221.377609,325.006470 
	C222.921448,324.233887 225.049438,322.897400 225.285828,321.527863 
	C226.688217,313.403259 227.615128,305.196594 228.871948,295.737244 
	C224.684006,297.450928 221.450531,298.774048 218.065933,300.899750 
M276.116211,297.340057 
	C276.744019,298.574310 277.371826,299.808594 278.485626,301.998260 
	C280.299591,299.808075 281.669861,298.344116 282.808136,296.717865 
	C283.692871,295.453888 285.227905,293.634827 284.864502,292.666504 
	C281.812958,284.535339 278.389709,276.543640 274.914673,268.112762 
	C273.504333,269.446808 272.748383,270.353058 271.816650,271.010040 
	C267.807068,273.837158 267.069855,276.997040 269.507599,281.531830 
	C272.082245,286.321320 273.793182,291.575073 276.116211,297.340057 
M292.789703,275.653351 
	C290.322784,269.815918 287.855835,263.978485 284.884033,256.946442 
	C283.008820,259.285278 281.779602,260.656677 280.741638,262.160156 
	C279.770172,263.567352 277.931305,265.513550 278.312927,266.536926 
	C281.344940,274.668274 284.815704,282.636047 288.221863,290.822418 
	C296.289001,284.170441 296.289001,284.170441 292.789703,275.653351 
M327.368958,159.528412 
	C327.368958,157.922882 327.368958,156.317352 327.368958,154.714111 
	C323.463745,154.714111 320.226349,154.714111 316.885864,154.714111 
	C316.885864,158.308975 316.885864,161.557388 316.885864,165.006439 
	C320.407684,165.006439 323.642151,165.006439 327.130341,165.006439 
	C327.218292,163.298813 327.293579,161.836807 327.368958,159.528412 
M318.271484,212.227783 
	C321.202271,212.227783 324.133026,212.227783 327.068268,212.227783 
	C327.068268,208.306656 327.068268,205.045349 327.068268,201.675095 
	C323.527771,201.675095 320.291626,201.675095 316.284485,201.675095 
	C316.705414,205.392197 317.084686,208.741211 318.271484,212.227783 
M152.996384,293.946350 
	C152.259201,296.803101 151.522018,299.659851 150.670502,302.959747 
	C154.243301,303.891113 157.388626,304.711060 161.075775,305.672241 
	C161.995331,302.094391 162.834213,298.830475 163.861694,294.832733 
	C159.926666,294.247894 156.585678,293.751343 152.996384,293.946350 
M150.768265,318.650085 
	C152.802292,319.156006 154.836334,319.661926 157.154709,320.238586 
	C158.122986,316.575195 158.956436,313.421967 159.905716,309.830505 
	C156.214584,308.896240 152.939636,308.067291 149.504501,307.197815 
	C148.720795,309.993317 148.260147,312.275085 147.435471,314.416687 
	C146.404770,317.093353 147.558746,318.108124 150.768265,318.650085 
M247.935867,312.564758 
	C247.414368,310.892120 246.892853,309.219452 246.273697,307.233612 
	C242.660797,308.239563 239.430206,309.139069 235.979568,310.099854 
	C236.976746,313.755219 237.825150,316.865295 238.793747,320.415924 
	C242.457214,319.418427 245.693024,318.537384 249.108826,317.607300 
	C248.688629,315.852570 248.387009,314.593048 247.935867,312.564758 
z"/>
<path fill="#FCFCFC" opacity="1.000000" stroke="none" 
	d="
M70.142670,189.192978 
	C78.312714,186.699341 86.099602,184.317093 94.396530,181.778793 
	C90.888649,229.270844 109.649216,264.665436 151.115021,288.744659 
	C129.991501,308.421600 109.000916,327.974701 87.051514,348.420959 
	C87.498024,341.022034 87.826813,334.698029 88.270157,328.382080 
	C89.995712,303.799683 91.669106,279.212799 93.605293,254.646790 
	C93.882721,251.126877 91.815636,250.439255 89.593521,249.357025 
	C63.987717,236.886154 38.380726,224.417740 12.780238,211.935974 
	C11.063497,211.098953 9.396834,210.159210 6.566401,208.665298 
	C28.500551,201.945175 49.130035,195.624771 70.142670,189.192978 
z"/>
<path fill="#F4F6F5" opacity="1.000000" stroke="none" 
	d="
M170.471603,84.880272 
	C161.840912,82.722351 153.292542,79.234520 144.561737,78.694214 
	C128.343872,77.690559 111.996140,77.889023 95.749451,78.624550 
	C87.611282,78.992989 83.203705,75.255676 80.069443,68.934341 
	C104.064728,68.705971 127.479675,68.725372 151.228485,68.986557 
	C152.798630,69.171097 154.034897,69.113846 155.271164,69.056595 
	C153.891327,68.307365 152.511505,67.558128 150.662292,66.716736 
	C141.059189,66.610374 131.925262,66.550323 122.791809,66.592331 
	C107.858070,66.661011 92.924629,66.796150 77.991066,66.903252 
	C66.906548,67.859222 57.159370,64.209846 47.024845,57.525318 
	C49.819279,57.525318 51.561115,57.525322 53.302948,57.525318 
	C83.128792,57.525311 112.971863,56.938446 142.772049,57.812836 
	C154.768600,58.164825 166.621017,62.103493 178.635193,63.674267 
	C185.911377,64.625572 189.728867,67.684837 190.848816,75.080803 
	C191.714066,80.794876 193.729645,86.346252 195.418442,91.913963 
	C195.737930,92.967186 196.924652,93.757362 197.711212,94.668915 
	C198.628860,93.720039 200.039871,92.922218 200.384094,91.797798 
	C202.622284,84.486862 204.789108,77.144760 206.629379,69.726051 
	C207.334045,66.885368 208.576202,65.610428 211.457199,65.036011 
	C222.403702,62.853531 233.292801,60.384415 244.215378,58.079426 
	C245.831329,57.738411 247.511780,57.551483 249.162628,57.549873 
	C280.987946,57.518795 312.813293,57.522804 344.638641,57.539246 
	C345.720917,57.539803 346.803070,57.744770 348.520660,57.918861 
	C338.692841,63.976582 329.103699,68.169540 317.003601,66.650787 
	C292.350067,66.691154 268.601288,66.741585 244.453949,66.729828 
	C241.652359,67.312675 239.249359,67.957710 236.846359,68.602745 
	C236.996857,69.276100 237.147354,69.949448 237.297867,70.622803 
	C239.902359,69.993248 242.506851,69.363701 245.572784,68.743095 
	C257.497101,68.752930 268.960205,68.800163 280.422791,68.741913 
	C292.369171,68.681198 304.315033,68.518776 316.261139,68.400818 
	C314.104736,74.562485 308.948059,78.405594 302.830444,78.406181 
	C291.337891,78.407272 279.822388,78.867195 268.358368,78.295341 
	C252.335236,77.496071 236.841446,79.638565 220.920227,84.691238 
	C217.857376,85.004234 215.532242,85.207367 212.482925,85.473763 
	C212.700073,92.241577 207.924942,97.307518 202.769058,102.192390 
	C201.973816,102.945831 201.607666,104.152153 200.891998,105.311501 
	C200.461136,105.806732 200.181366,106.139503 199.679138,106.540833 
	C199.456696,106.609383 199.051880,106.832520 198.725174,106.736504 
	C195.630356,104.363541 192.862259,102.086586 189.934402,99.515686 
	C184.271973,95.653717 184.547699,89.175270 182.892242,84.907639 
	C180.126617,85.101463 178.155548,85.346115 176.184372,85.347107 
	C174.300125,85.348045 172.415726,85.095490 170.514481,84.927368 
	C170.497559,84.900391 170.471603,84.880272 170.471603,84.880272 
z"/>
<path fill="#EDF0EF" opacity="1.000000" stroke="none" 
	d="
M170.339600,85.349167 
	C170.471603,84.880272 170.497559,84.900391 170.255081,85.331543 
	C172.947983,86.608635 175.946289,87.288605 178.793289,88.367706 
	C180.308884,88.942154 182.854721,90.463264 182.724808,91.119156 
	C181.886642,95.350311 184.998566,97.311890 186.748962,100.179169 
	C130.686707,108.587227 93.997276,158.247223 103.776695,212.344666 
	C111.777115,256.601135 149.109909,289.213196 193.900864,291.072601 
	C238.973740,292.943756 278.937225,263.477203 290.584229,219.784393 
	C302.072906,176.685455 281.771881,131.181076 241.891281,110.414803 
	C231.259094,104.878502 219.867783,101.980995 208.334656,99.703522 
	C210.668549,98.269615 212.835556,97.125549 215.002548,95.981483 
	C250.068008,103.112450 276.205963,122.290245 290.226318,155.341827 
	C306.504395,193.715668 301.075653,230.212479 273.677399,261.608490 
	C246.513916,292.735474 211.203522,303.323120 171.419098,292.411133 
	C131.697601,281.516388 106.896553,254.509491 99.031410,213.921555 
	C88.545120,159.807251 123.099281,108.714890 176.930420,96.876854 
	C178.336609,96.567612 179.726074,96.182327 181.406265,94.651756 
	C179.965454,94.012772 178.572296,93.218925 177.076508,92.758492 
	C160.070648,87.523735 142.748810,84.979340 124.891182,86.090027 
	C117.258583,86.564751 109.556633,86.457443 101.915855,86.053604 
	C97.802933,85.836227 93.752693,84.432793 89.674171,83.564499 
	C89.737671,83.026703 89.801163,82.488899 89.864662,81.951096 
	C90.872383,81.797852 91.879913,81.512421 92.887856,81.510971 
	C111.210297,81.484566 129.541122,81.178864 147.850616,81.666824 
	C154.061203,81.832344 160.215332,84.032852 166.401337,85.273125 
	C167.656067,85.524696 168.938141,85.639961 170.339600,85.349167 
z"/>
<path fill="#F8F9F9" opacity="1.000000" stroke="none" 
	d="
M309.958557,140.950867 
	C304.705444,145.828796 299.711121,150.464813 294.809204,155.015076 
	C288.796631,145.429199 282.855377,135.957016 276.612640,126.004189 
	C300.043640,118.830780 323.773285,111.565933 347.502930,104.301086 
	C347.732239,104.633362 347.961548,104.965645 348.190857,105.297920 
	C335.533051,117.101601 322.875214,128.905273 309.958557,140.950867 
z"/>
<path fill="#E3BB02" opacity="1.000000" stroke="none" 
	d="
M199.999115,17.993429 
	C201.447693,24.907635 202.945786,31.396034 204.175018,37.934971 
	C204.744995,40.966991 206.188477,42.280827 209.269379,42.935196 
	C217.864746,44.760803 226.367798,47.021614 234.900940,49.136257 
	C235.135437,49.194370 235.297653,49.544155 235.844284,50.140556 
	C230.300217,51.285522 225.033401,53.120071 219.704880,53.321373 
	C207.867981,53.768547 202.401306,59.445770 201.841171,71.191299 
	C201.576691,76.737129 199.608749,82.201714 197.447235,87.792053 
	C195.644043,79.556862 193.503586,71.376068 192.163544,63.066193 
	C191.353210,58.041252 189.303711,55.758926 184.167297,54.979519 
	C175.982834,53.737610 167.927856,51.642372 159.758698,48.736698 
	C167.773285,46.979031 175.729370,44.839031 183.823364,43.600121 
	C189.086990,42.794445 191.396255,40.605396 192.208435,35.302216 
	C193.463943,27.104374 195.598694,19.041187 198.245758,10.735799 
	C198.810043,13.019967 199.374313,15.304134 199.999115,17.993429 
z"/>
<path fill="#EDF0EF" opacity="1.000000" stroke="none" 
	d="
M221.005142,87.088463 
	C248.422363,78.253677 276.704895,82.385933 304.653473,81.526062 
	C305.086151,81.512741 305.527679,81.786316 306.270081,83.157700 
	C302.800842,84.161484 299.373505,85.802383 295.853455,86.034103 
	C288.901276,86.491753 281.876434,86.522476 274.919495,86.102570 
	C254.774994,84.886696 235.158493,87.464516 215.116577,93.550484 
	C211.306870,91.300034 212.936279,89.875671 215.336899,88.860413 
	C217.151535,88.092964 219.110443,87.666618 221.005142,87.088463 
z"/>
<path fill="#EBEEED" opacity="1.000000" stroke="none" 
	d="
M319.801697,187.013092 
	C315.762878,185.339172 312.074799,183.811188 308.389618,182.276169 
	C300.313507,178.912155 300.027222,178.330643 302.112549,168.808578 
	C309.974365,172.067490 317.815338,175.163132 325.469666,178.666595 
	C326.549042,179.160645 326.988770,181.604187 327.236755,183.220230 
	C327.533783,185.155701 327.306885,187.171585 327.306885,190.119370 
	C324.543427,188.974472 322.348572,188.065155 319.801697,187.013092 
z"/>
<path fill="#EBEEED" opacity="1.000000" stroke="none" 
	d="
M312.204407,219.929626 
	C315.169464,221.166595 317.776672,222.260529 320.385651,223.350143 
	C328.433075,226.711060 328.571259,226.995819 326.599243,236.845154 
	C318.900299,233.640839 311.195831,230.644592 303.734344,227.132126 
	C302.413116,226.510178 301.823822,223.799530 301.410309,221.939209 
	C301.026154,220.210953 301.328308,218.330154 301.328308,215.648056 
	C305.227997,217.181595 308.537659,218.483109 312.204407,219.929626 
z"/>
<path fill="#EDF0EF" opacity="1.000000" stroke="none" 
	d="
M176.557541,300.339783 
	C180.245499,300.339386 183.693268,300.620972 188.688461,301.028961 
	C182.444275,309.119415 177.252747,316.074524 171.710983,322.738281 
	C171.015106,323.575012 168.438110,323.093597 166.795059,322.831696 
	C164.901062,322.529755 163.076294,321.793518 160.614014,321.066559 
	C166.084869,313.943848 171.201126,307.282806 176.557541,300.339783 
z"/>
<path fill="#EFF1F0" opacity="1.000000" stroke="none" 
	d="
M218.141479,300.498474 
	C221.450531,298.774048 224.684006,297.450928 228.871948,295.737244 
	C227.615128,305.196594 226.688217,313.403259 225.285828,321.527863 
	C225.049438,322.897400 222.921448,324.233887 221.377609,325.006470 
	C219.635773,325.878143 217.566391,326.095245 214.750687,326.828522 
	C215.899231,317.845703 216.982590,309.372711 218.141479,300.498474 
z"/>
<path fill="#EFF1F0" opacity="1.000000" stroke="none" 
	d="
M275.998810,296.983032 
	C273.793182,291.575073 272.082245,286.321320 269.507599,281.531830 
	C267.069855,276.997040 267.807068,273.837158 271.816650,271.010040 
	C272.748383,270.353058 273.504333,269.446808 274.914673,268.112762 
	C278.389709,276.543640 281.812958,284.535339 284.864502,292.666504 
	C285.227905,293.634827 283.692871,295.453888 282.808136,296.717865 
	C281.669861,298.344116 280.299591,299.808075 278.485626,301.998260 
	C277.371826,299.808594 276.744019,298.574310 275.998810,296.983032 
z"/>
<path fill="#EFF1F0" opacity="1.000000" stroke="none" 
	d="
M292.911499,276.012939 
	C296.289001,284.170441 296.289001,284.170441 288.221863,290.822418 
	C284.815704,282.636047 281.344940,274.668274 278.312927,266.536926 
	C277.931305,265.513550 279.770172,263.567352 280.741638,262.160156 
	C281.779602,260.656677 283.008820,259.285278 284.884033,256.946442 
	C287.855835,263.978485 290.322784,269.815918 292.911499,276.012939 
z"/>
<path fill="#284A3A" opacity="1.000000" stroke="none" 
	d="
M78.104759,67.105606 
	C92.924629,66.796150 107.858070,66.661011 122.791809,66.592331 
	C131.925262,66.550323 141.059189,66.610374 150.659943,67.043396 
	C151.049530,67.889725 150.972076,68.317245 150.894623,68.744774 
	C127.479675,68.725372 104.064728,68.705971 80.181152,68.540482 
	C79.214500,68.032242 78.716476,67.670105 78.104759,67.105606 
z"/>
<path fill="#284A3A" opacity="1.000000" stroke="none" 
	d="
M244.852539,66.792007 
	C268.601288,66.741585 292.350067,66.691154 316.551941,66.772202 
	C316.834106,67.285713 316.663147,67.667763 316.376678,68.225311 
	C304.315033,68.518776 292.369171,68.681198 280.422791,68.741913 
	C268.960205,68.800163 257.497101,68.752930 245.531250,68.417801 
	C244.969696,67.653046 244.911118,67.222527 244.852539,66.792007 
z"/>
<path fill="#EDF0EF" opacity="1.000000" stroke="none" 
	d="
M327.368927,159.951614 
	C327.293579,161.836807 327.218292,163.298813 327.130341,165.006439 
	C323.642151,165.006439 320.407684,165.006439 316.885864,165.006439 
	C316.885864,161.557388 316.885864,158.308975 316.885864,154.714111 
	C320.226349,154.714111 323.463745,154.714111 327.368958,154.714111 
	C327.368958,156.317352 327.368958,157.922882 327.368927,159.951614 
z"/>
<path fill="#EDF0EF" opacity="1.000000" stroke="none" 
	d="
M317.867706,212.158997 
	C317.084686,208.741211 316.705414,205.392197 316.284485,201.675095 
	C320.291626,201.675095 323.527771,201.675095 327.068268,201.675095 
	C327.068268,205.045349 327.068268,208.306656 327.068268,212.227783 
	C324.133026,212.227783 321.202271,212.227783 317.867706,212.158997 
z"/>
<path fill="#EBEEED" opacity="1.000000" stroke="none" 
	d="
M153.120529,293.600586 
	C156.585678,293.751343 159.926666,294.247894 163.861694,294.832733 
	C162.834213,298.830475 161.995331,302.094391 161.075775,305.672241 
	C157.388626,304.711060 154.243301,303.891113 150.670502,302.959747 
	C151.522018,299.659851 152.259201,296.803101 153.120529,293.600586 
z"/>
<path fill="#EBEEED" opacity="1.000000" stroke="none" 
	d="
M150.376480,318.555634 
	C147.558746,318.108124 146.404770,317.093353 147.435471,314.416687 
	C148.260147,312.275085 148.720795,309.993317 149.504501,307.197815 
	C152.939636,308.067291 156.214584,308.896240 159.905716,309.830505 
	C158.956436,313.421967 158.122986,316.575195 157.154709,320.238586 
	C154.836334,319.661926 152.802292,319.156006 150.376480,318.555634 
z"/>
<path fill="#EBEEED" opacity="1.000000" stroke="none" 
	d="
M248.010620,312.949158 
	C248.387009,314.593048 248.688629,315.852570 249.108826,317.607300 
	C245.693024,318.537384 242.457214,319.418427 238.793747,320.415924 
	C237.825150,316.865295 236.976746,313.755219 235.979568,310.099854 
	C239.430206,309.139069 242.660797,308.239563 246.273697,307.233612 
	C246.892853,309.219452 247.414368,310.892120 248.010620,312.949158 
z"/>
<path fill="#5D6E62" opacity="1.000000" stroke="none" 
	d="
M220.977921,86.724426 
	C219.110443,87.666618 217.151535,88.092964 215.336899,88.860413 
	C212.936279,89.875671 211.306870,91.300034 214.732040,93.700676 
	C215.126144,94.334068 215.074615,94.881981 215.012817,95.705688 
	C212.835556,97.125549 210.668549,98.269615 208.081543,99.909958 
	C207.033554,101.492378 206.405594,102.578537 205.466568,103.733299 
	C204.465836,104.164604 203.776154,104.527306 202.746490,104.934578 
	C201.952026,105.035767 201.497559,105.092400 201.043091,105.149033 
	C201.607666,104.152153 201.973816,102.945831 202.769058,102.192390 
	C207.924942,97.307518 212.700073,92.241577 212.482925,85.473763 
	C215.532242,85.207367 217.857376,85.004234 220.565231,84.850800 
	C220.948868,85.387123 220.949783,85.873756 220.977921,86.724426 
z"/>
<path fill="#8F1C1C" opacity="1.000000" stroke="none" 
	d="
M200.891998,105.311493 
	C201.497559,105.092400 201.952026,105.035767 203.094055,105.148727 
	C207.680740,105.865372 211.610657,106.250984 215.473724,106.987350 
	C232.631760,110.257996 247.403030,118.239861 260.235474,130.309372 
	C253.110748,137.336853 245.999329,144.003662 238.751678,150.798187 
	C231.058838,144.417099 222.182358,138.407181 210.686630,136.765808 
	C206.854370,135.986404 203.329330,135.458023 199.088562,134.822357 
	C199.088562,125.836205 199.088562,117.159561 199.122391,108.469925 
	C199.156219,108.456917 199.140640,108.386124 199.370743,108.115936 
	C199.701096,107.387924 199.801346,106.930099 199.901596,106.472275 
	C200.181366,106.139503 200.461136,105.806732 200.891998,105.311493 
z"/>
<path fill="#415F51" opacity="1.000000" stroke="none" 
	d="
M187.054489,99.905045 
	C184.998566,97.311890 181.886642,95.350311 182.724808,91.119156 
	C182.854721,90.463264 180.308884,88.942154 178.793289,88.367706 
	C175.946289,87.288605 172.947983,86.608635 170.272003,85.358521 
	C172.415726,85.095490 174.300125,85.348045 176.184372,85.347107 
	C178.155548,85.346115 180.126617,85.101463 182.892242,84.907639 
	C184.547699,89.175270 184.271973,95.653717 189.944443,99.870224 
	C190.096008,100.754456 190.077789,100.990204 189.748474,101.113174 
	C188.643082,100.635284 187.848785,100.270164 187.054489,99.905045 
z"/>
<path fill="#5D6E62" opacity="1.000000" stroke="none" 
	d="
M190.059586,101.225945 
	C190.077789,100.990204 190.096008,100.754456 190.104187,100.164169 
	C192.862259,102.086586 195.630356,104.363541 198.748535,107.124832 
	C199.112625,107.868156 199.126633,108.127144 199.140640,108.386124 
	C199.140640,108.386124 199.156219,108.456917 198.770569,108.580673 
	C197.650208,108.698860 196.915512,108.693283 196.067505,108.402504 
	C194.655533,107.238991 193.356842,106.360680 191.972046,105.095779 
	C191.490158,104.373329 191.094376,104.037460 190.682159,103.441589 
	C190.463669,102.529709 190.261627,101.877831 190.059586,101.225945 
z"/>
<path fill="#6C8378" opacity="1.000000" stroke="none" 
	d="
M244.453949,66.729828 
	C244.911118,67.222527 244.969696,67.653046 245.069824,68.408859 
	C242.506851,69.363701 239.902359,69.993248 237.297867,70.622803 
	C237.147354,69.949448 236.996857,69.276100 236.846359,68.602745 
	C239.249359,67.957710 241.652359,67.312675 244.453949,66.729828 
z"/>
<path fill="#6C8378" opacity="1.000000" stroke="none" 
	d="
M151.228485,68.986557 
	C150.972076,68.317245 151.049530,67.889725 151.129318,67.135544 
	C152.511505,67.558128 153.891327,68.307365 155.271164,69.056595 
	C154.034897,69.113846 152.798630,69.171097 151.228485,68.986557 
z"/>
<path fill="#75645C" opacity="1.000000" stroke="none" 
	d="
M199.370743,108.115936 
	C199.126633,108.127144 199.112625,107.868156 199.075241,107.220848 
	C199.051880,106.832520 199.456696,106.609383 199.679138,106.540833 
	C199.801346,106.930099 199.701096,107.387924 199.370743,108.115936 
z"/>
<path fill="#9C3737" opacity="1.000000" stroke="none" 
	d="
M189.748474,101.113174 
	C190.261627,101.877831 190.463669,102.529709 190.252686,103.478561 
	C176.883987,103.599236 165.077423,107.513954 153.614502,113.946655 
	C147.382904,118.311714 141.489319,122.585663 135.445587,127.266663 
	C135.552887,127.805504 135.810349,127.937309 136.036560,128.040649 
	C136.005310,128.012192 136.054413,128.081421 135.884155,127.688019 
	C133.997528,128.809296 132.281158,130.323975 130.291199,131.987701 
	C128.605621,133.855255 127.193619,135.573776 125.504440,137.518860 
	C97.977486,172.039368 98.315186,222.487442 126.429367,254.397858 
	C127.414185,254.549438 127.974678,254.241150 128.811935,254.108215 
	C129.207520,255.505478 129.326355,256.727386 129.660217,258.297363 
	C131.382004,260.109924 132.826874,261.651703 134.459396,262.959167 
	C134.717148,263.165588 135.822937,262.313080 136.683899,261.950867 
	C137.041473,262.058136 137.113892,262.224640 136.418472,262.635681 
	C136.116272,263.574615 136.444016,264.328979 136.890488,265.311401 
	C137.301758,265.704895 137.594284,265.870331 138.110199,266.359131 
	C138.701950,267.054810 139.070343,267.427094 139.435394,267.778931 
	C139.432083,267.758514 139.305099,267.796631 139.751709,268.041687 
	C140.781937,268.630798 141.365555,268.974823 142.314789,269.468506 
	C142.806763,269.387054 142.933136,269.155975 143.031464,268.963043 
	C143.003448,269.001190 143.051819,268.920868 142.737289,269.162048 
	C143.598373,270.320862 144.773972,271.238464 146.154968,272.417786 
	C148.609802,274.078491 150.782120,275.624573 153.121780,276.851593 
	C164.466553,282.801025 176.320755,287.199951 189.231644,288.124390 
	C191.044617,288.254181 193.597687,288.931549 193.286011,285.307129 
	C194.315170,285.099884 195.089752,285.038025 195.732025,285.333801 
	C196.085129,286.548279 196.570557,287.405090 197.055969,288.261902 
	C197.869202,287.165344 198.682434,286.068817 199.859924,284.948212 
	C203.446823,286.180145 206.673859,288.286591 209.649277,284.297974 
	C209.979370,283.855530 211.514435,284.311951 212.308960,284.690857 
	C213.344757,285.703552 214.765213,287.178070 215.749023,286.928864 
	C228.490173,283.701355 240.884109,279.586365 251.724335,271.093445 
	C252.687469,269.936951 253.316360,268.931396 253.970474,267.962799 
	C253.995697,267.999725 253.932602,267.935883 254.141632,268.335785 
	C254.633453,268.632874 254.916214,268.530090 255.580292,268.241913 
	C256.785828,267.291809 257.610016,266.527039 258.434204,265.762268 
	C257.932892,265.352997 257.431549,264.943726 256.917023,264.483978 
	C256.903809,264.433502 256.916199,264.432159 257.091736,264.986450 
	C258.027496,265.331146 259.097107,265.372833 259.501801,264.874512 
	C266.205353,256.620117 272.834930,248.305420 279.411652,239.949585 
	C279.583862,239.730804 278.975983,238.898056 278.784943,238.357330 
	C278.838013,238.363052 278.913025,238.439026 279.393616,238.567566 
	C280.101135,238.454239 280.328064,238.212387 280.452576,237.883621 
	C280.264496,237.509598 280.288757,237.243439 280.836914,236.675400 
	C289.005219,221.188599 292.401031,204.983856 290.422485,188.183853 
	C289.254456,178.266129 285.872498,168.597015 283.252777,158.879028 
	C282.954498,157.772614 282.659088,154.176025 279.567688,156.717224 
	C278.953735,154.844940 278.428650,153.168839 278.333801,151.624878 
	C276.440369,143.804459 271.844330,137.488724 265.044220,132.443039 
	C264.414276,131.620956 263.808228,131.099289 263.160828,130.370758 
	C262.957153,129.894760 262.719086,129.768890 262.373596,129.430771 
	C261.128937,127.749023 260.043732,126.271980 258.683441,125.119682 
	C243.405624,112.177826 226.059296,104.289558 205.777618,103.664696 
	C206.405594,102.578537 207.033554,101.492378 207.914642,100.199799 
	C219.867783,101.980995 231.259094,104.878502 241.891281,110.414803 
	C281.771881,131.181076 302.072906,176.685455 290.584229,219.784393 
	C278.937225,263.477203 238.973740,292.943756 193.900864,291.072601 
	C149.109909,289.213196 111.777115,256.601135 103.776695,212.344666 
	C93.997276,158.247223 130.686707,108.587227 186.748962,100.179169 
	C187.848785,100.270164 188.643082,100.635284 189.748474,101.113174 
z"/>
<path fill="#E2C9C9" opacity="1.000000" stroke="none" 
	d="
M205.466568,103.733299 
	C226.059296,104.289558 243.405624,112.177826 258.683441,125.119682 
	C260.043732,126.271980 261.128937,127.749023 262.015869,129.480453 
	C261.209503,129.906693 260.729156,129.927704 260.248779,129.948700 
	C247.403030,118.239861 232.631760,110.257996 215.473724,106.987350 
	C211.610657,106.250984 207.680740,105.865372 203.434021,105.104156 
	C203.776154,104.527306 204.465836,104.164604 205.466568,103.733299 
z"/>
<path fill="#EADADA" opacity="1.000000" stroke="none" 
	d="
M260.235474,130.309372 
	C260.729156,129.927704 261.209503,129.906693 262.047577,129.835999 
	C262.719086,129.768890 262.957153,129.894760 263.114563,130.692673 
	C263.046997,131.868149 262.984406,132.514862 262.664551,133.419617 
	C255.613419,140.444336 248.819565,147.210983 241.950073,154.052963 
	C252.385559,165.669296 257.704590,178.798264 258.441132,193.796875 
	C268.549591,193.796875 278.239532,193.796875 288.179535,193.796875 
	C288.174500,180.564514 285.187134,168.450958 279.656586,156.913391 
	C282.659088,154.176025 282.954498,157.772614 283.252777,158.879028 
	C285.872498,168.597015 289.254456,178.266129 290.422485,188.183853 
	C292.401031,204.983856 289.005219,221.188599 280.631897,236.159286 
	C280.464111,234.102493 280.701477,232.154144 281.401703,230.389450 
	C285.530182,219.984879 288.303497,209.339066 288.111359,197.921875 
	C277.945496,197.921875 268.247925,197.921875 258.365234,197.921875 
	C257.498749,213.119186 251.842682,225.967285 241.595993,237.370316 
	C247.330124,243.044128 253.000595,248.395599 258.350525,254.050339 
	C261.339081,257.209137 263.449493,258.389191 266.322388,253.864761 
	C268.869812,249.852905 272.141663,246.298386 275.126801,242.568436 
	C276.281708,241.125381 277.527496,239.755081 278.731873,238.351624 
	C278.975983,238.898056 279.583862,239.730804 279.411652,239.949585 
	C272.834930,248.305420 266.205353,256.620117 259.501801,264.874512 
	C259.097107,265.372833 258.027496,265.331146 257.333923,264.589661 
	C258.477722,262.237488 261.147369,261.326630 258.696320,258.897736 
	C252.252182,252.511917 245.850632,246.083160 240.399765,240.638107 
	C232.368896,244.748383 225.201096,248.416916 217.755844,251.767990 
	C217.025452,251.118607 216.572540,250.786682 216.401581,250.228943 
	C223.586380,246.280411 230.489243,242.557678 238.451126,238.263809 
	C228.013550,228.291367 218.857635,219.543503 209.410614,210.537842 
	C208.959259,209.460098 208.364853,208.286591 208.702469,207.871979 
	C216.684174,198.069992 216.390106,190.364700 207.776947,181.673813 
	C209.153488,180.856323 210.646271,180.671280 211.494598,179.833603 
	C220.116409,171.320160 228.633163,162.700317 237.143204,154.146606 
	C232.485916,148.055069 226.520096,144.731476 210.141510,138.645721 
	C210.504044,137.945999 210.748962,137.481415 210.993866,137.016830 
	C222.182358,138.407181 231.058838,144.417099 238.751678,150.798187 
	C245.999329,144.003662 253.110748,137.336853 260.235474,130.309372 
M242.933929,159.481979 
	C242.228104,158.172440 241.522278,156.862900 240.623932,155.196152 
	C230.901505,165.001465 222.480347,173.488525 214.073242,181.989471 
	C213.618835,182.448944 213.282333,183.025040 212.991730,183.412506 
	C214.096954,186.372498 214.996399,189.203308 216.235886,191.876465 
	C216.681412,192.837326 217.937943,194.064545 218.837570,194.075378 
	C230.919891,194.221100 243.004547,194.173004 255.429688,194.173004 
	C255.159714,181.020081 250.962341,169.955688 242.933929,159.481979 
M230.505630,197.499069 
	C222.340729,196.591766 214.650223,196.560303 212.708755,207.140274 
	C212.680374,207.294922 212.662048,207.451401 212.698257,207.206589 
	C221.851151,216.403473 230.835068,225.430557 240.091949,234.731918 
	C249.487381,224.497833 254.861206,212.372421 255.416580,197.498840 
	C247.043411,197.498840 239.273834,197.498840 230.505630,197.499069 
z"/>
<path fill="#EFE4E4" opacity="1.000000" stroke="none" 
	d="
M210.686630,136.765808 
	C210.748962,137.481415 210.504044,137.945999 209.772186,138.671051 
	C206.217850,138.589645 203.150452,138.247742 199.971313,137.893402 
	C199.971313,151.360504 199.971313,164.207306 199.848541,177.284805 
	C199.478867,177.975082 199.231964,178.434677 198.614883,178.956543 
	C197.495193,179.001022 196.745697,178.983231 196.011780,178.599579 
	C196.025299,177.501923 196.023209,176.770096 196.093628,175.572021 
	C196.166138,162.898880 196.166138,150.691986 196.166138,138.336411 
	C193.504944,138.201126 191.259232,138.086960 189.005936,137.636383 
	C188.993332,136.851151 188.988312,136.402328 189.372925,135.833862 
	C191.721970,135.463516 193.681396,135.212830 196.180801,134.893051 
	C196.180801,126.132034 196.180801,117.409874 196.180801,108.687714 
	C196.915512,108.693283 197.650208,108.698860 198.736740,108.593681 
	C199.088562,117.159561 199.088562,125.836205 199.088562,134.822357 
	C203.329330,135.458023 206.854370,135.986404 210.686630,136.765808 
z"/>
<path fill="#8F1C1C" opacity="1.000000" stroke="none" 
	d="
M196.067505,108.402504 
	C196.180801,117.409874 196.180801,126.132034 196.180801,134.893051 
	C193.681396,135.212830 191.721970,135.463516 188.981613,135.769058 
	C187.446823,136.031799 186.692947,136.239685 185.613983,136.457672 
	C183.858276,136.990723 182.427673,137.513672 180.619934,137.948730 
	C178.250549,138.554672 176.125229,139.006516 174.302414,140.008591 
	C172.376373,141.067429 170.738556,142.650558 168.988312,144.002350 
	C169.001816,144.000076 169.015472,143.976395 168.863861,143.574905 
	C167.756119,143.679672 166.800003,144.185913 165.520172,144.754517 
	C164.347076,145.492157 163.497711,146.167465 162.450012,146.872925 
	C161.989059,147.019379 161.817307,147.215332 161.434021,147.595825 
	C160.054840,148.692093 158.978058,149.683441 157.547455,150.832397 
	C155.863281,150.302277 154.280640,149.877136 153.245316,148.882339 
	C148.213577,144.047638 143.186783,139.189926 138.480301,134.045700 
	C137.121704,132.560776 136.833405,130.096634 136.054413,128.081421 
	C136.054413,128.081421 136.005310,128.012192 136.235931,128.342102 
	C136.681320,128.562851 136.896103,128.453690 137.432953,128.209991 
	C143.201874,124.133621 148.648712,120.191803 154.458954,116.173294 
	C166.492828,109.957375 178.880341,106.333633 192.058151,105.482368 
	C193.356842,106.360680 194.655533,107.238991 196.067505,108.402504 
z"/>
<path fill="#E2C9C9" opacity="1.000000" stroke="none" 
	d="
M191.972046,105.095779 
	C178.880341,106.333633 166.492828,109.957375 154.441345,115.773849 
	C154.024399,114.919243 153.988464,114.387398 153.952515,113.855545 
	C165.077423,107.513954 176.883987,103.599236 190.269135,103.738571 
	C191.094376,104.037460 191.490158,104.373329 191.972046,105.095779 
z"/>
<path fill="#8F1C1C" opacity="1.000000" stroke="none" 
	d="
M279.567688,156.717224 
	C285.187134,168.450958 288.174500,180.564514 288.179535,193.796875 
	C278.239532,193.796875 268.549591,193.796875 258.441132,193.796875 
	C257.704590,178.798264 252.385559,165.669296 241.950073,154.052963 
	C248.819565,147.210983 255.613419,140.444336 263.028320,133.532089 
	C264.073456,133.645660 264.497559,133.904816 264.985535,134.494720 
	C269.334167,140.381226 273.618866,145.936981 277.903564,151.492722 
	C278.428650,153.168839 278.953735,154.844940 279.567688,156.717224 
z"/>
<path fill="#901D1D" opacity="1.000000" stroke="none" 
	d="
M278.784943,238.357330 
	C277.527496,239.755081 276.281708,241.125381 275.126801,242.568436 
	C272.141663,246.298386 268.869812,249.852905 266.322388,253.864761 
	C263.449493,258.389191 261.339081,257.209137 258.350525,254.050339 
	C253.000595,248.395599 247.330124,243.044128 241.595993,237.370316 
	C251.842682,225.967285 257.498749,213.119186 258.365234,197.921875 
	C268.247925,197.921875 277.945496,197.921875 288.111359,197.921875 
	C288.303497,209.339066 285.530182,219.984879 281.401703,230.389450 
	C280.701477,232.154144 280.464111,234.102493 280.217896,236.482117 
	C280.288757,237.243439 280.264496,237.509598 280.630066,237.336349 
	C280.283783,236.644241 279.657623,236.412491 279.031464,236.180740 
	C278.991974,236.933502 278.952484,237.686264 278.913025,238.439026 
	C278.913025,238.439026 278.838013,238.363052 278.784943,238.357330 
z"/>
<path fill="#901D1D" opacity="1.000000" stroke="none" 
	d="
M129.445190,257.949310 
	C129.326355,256.727386 129.207520,255.505478 128.741348,253.786774 
	C127.941231,252.824524 127.488449,252.359039 126.915497,251.581116 
	C114.725609,235.537643 108.062851,217.934341 107.698555,197.938904 
	C118.019463,197.938904 127.706589,197.938904 137.589310,197.938904 
	C138.414459,213.172745 144.091629,225.998367 154.395691,237.392914 
	C148.928467,242.721130 143.709045,247.816162 138.479462,252.900742 
	C136.072464,255.240982 134.200058,258.836243 129.825974,256.665222 
	C129.699036,257.093262 129.572113,257.521271 129.445190,257.949310 
z"/>
<path fill="#901E1E" opacity="1.000000" stroke="none" 
	d="
M218.033310,252.085449 
	C225.201096,248.416916 232.368896,244.748383 240.399765,240.638107 
	C245.850632,246.083160 252.252182,252.511917 258.696320,258.897736 
	C261.147369,261.326630 258.477722,262.237488 257.158386,264.035370 
	C256.916199,264.432159 256.903809,264.433502 256.572113,264.523071 
	C255.386993,265.373810 254.533600,266.135040 253.511993,267.212341 
	C253.540070,267.664246 253.736328,267.800079 253.932602,267.935883 
	C253.932602,267.935883 253.995697,267.999725 253.800354,267.596741 
	C252.371384,268.033417 251.137756,268.873047 249.562073,269.815186 
	C237.968796,277.253082 225.966522,282.677155 212.490677,284.351501 
	C211.514435,284.311951 209.979370,283.855530 209.649277,284.297974 
	C206.673859,288.286591 203.446823,286.180145 199.818512,284.483459 
	C199.412811,274.818054 199.412811,265.593323 199.412811,256.867920 
	C206.030487,255.168243 212.031906,253.626862 218.033310,252.085449 
z"/>
<path fill="#901D1D" opacity="1.000000" stroke="none" 
	d="
M195.864334,284.976135 
	C195.089752,285.038025 194.315170,285.099884 192.853607,285.378540 
	C187.796402,285.270416 183.025742,285.962036 179.131744,284.428162 
	C167.908966,280.007416 157.039886,274.688751 145.774323,269.422974 
	C144.695129,269.055756 143.873474,268.988312 143.051819,268.920837 
	C143.051819,268.920868 143.003448,269.001190 143.342377,268.644775 
	C143.265915,267.896149 142.850525,267.503937 142.430450,267.062439 
	C142.425735,267.013092 142.340973,266.961761 142.186523,266.728882 
	C141.709091,266.323120 141.386093,266.150238 140.898193,265.707947 
	C139.895096,264.807495 139.056885,264.176483 138.079803,263.309509 
	C137.643448,262.866089 137.345932,262.658569 137.048416,262.451080 
	C137.113892,262.224640 137.041473,262.058136 136.513428,261.631897 
	C142.822571,253.955551 149.449448,246.598846 155.392761,240.000992 
	C160.485580,242.646667 164.433319,244.697495 168.390076,246.774139 
	C168.399094,246.799988 168.510315,246.973877 168.406082,247.363739 
	C173.813644,249.974808 179.325455,252.196014 185.148239,254.677155 
	C188.891983,255.268173 192.324753,255.599289 195.864334,255.940689 
	C195.864334,265.827942 195.864334,275.402039 195.864334,284.976135 
z"/>
<path fill="#ECDFDF" opacity="1.000000" stroke="none" 
	d="
M168.381073,246.748306 
	C164.433319,244.697495 160.485580,242.646667 155.392761,240.000992 
	C149.449448,246.598846 142.822571,253.955551 136.366165,261.631226 
	C135.822937,262.313080 134.717148,263.165588 134.459396,262.959167 
	C132.826874,261.651703 131.382004,260.109924 129.660217,258.297363 
	C129.572113,257.521271 129.699036,257.093262 129.825974,256.665222 
	C134.200058,258.836243 136.072464,255.240982 138.479462,252.900742 
	C143.709045,247.816162 148.928467,242.721130 154.395691,237.392914 
	C144.091629,225.998367 138.414459,213.172745 137.589310,197.938904 
	C127.706589,197.938904 118.019463,197.938904 107.698555,197.938904 
	C108.062851,217.934341 114.725609,235.537643 126.801819,251.844086 
	C126.540550,252.925674 126.272797,253.431839 126.005043,253.938019 
	C98.315186,222.487442 97.977486,172.039368 125.669830,138.165009 
	C126.215225,139.017136 126.318047,139.449692 126.289673,140.168808 
	C114.427078,156.227829 107.901588,173.763168 107.680092,193.819641 
	C117.856209,193.819641 127.546249,193.819641 137.450287,193.819641 
	C138.400803,180.787933 141.888763,169.007309 150.437744,159.072235 
	C151.196304,159.497269 151.657578,159.862778 152.011169,160.550278 
	C144.723679,170.595978 140.717667,181.397507 140.469131,194.166122 
	C153.030685,194.166122 165.268372,194.228622 177.501877,194.030991 
	C178.353027,194.017242 179.172989,192.071548 180.393951,190.985474 
	C181.188766,194.946838 181.597107,198.946976 181.607986,203.037277 
	C180.447098,197.807266 177.009521,197.177307 172.342728,197.374237 
	C163.864670,197.732010 155.360672,197.475769 146.867508,197.475784 
	C144.801270,197.475784 142.735046,197.475784 140.682007,197.475784 
	C140.664215,211.729004 148.113937,228.660904 156.962982,234.828018 
	C163.556763,228.120743 170.225220,221.372742 176.850235,214.582352 
	C179.780457,211.578964 183.762756,209.152710 183.365082,203.987045 
	C186.558487,206.395523 189.406631,208.811401 192.193115,211.625275 
	C192.091690,212.288513 192.051895,212.553741 191.655121,212.818420 
	C189.411987,212.074295 187.525848,211.330688 186.566177,210.952347 
	C177.362305,220.122147 168.440643,229.010773 159.241974,238.175385 
	C161.404770,239.822922 163.969696,241.632645 166.347351,243.661789 
	C167.247604,244.430099 167.715897,245.704559 168.381073,246.748306 
z"/>
<path fill="#F0E6E6" opacity="1.000000" stroke="none" 
	d="
M195.732025,285.333801 
	C195.864334,275.402039 195.864334,265.827942 195.864334,255.940689 
	C192.324753,255.599289 188.891983,255.268173 185.184906,254.253586 
	C184.939102,253.003998 184.967621,252.437897 185.378052,251.853516 
	C187.494263,252.176834 189.228531,252.518433 191.202179,253.106049 
	C193.020081,253.096146 194.598633,252.840210 196.182419,252.079010 
	C196.032272,239.063690 195.876892,226.553635 195.962830,213.817505 
	C197.136353,213.051865 198.068542,212.512268 199.353638,211.919006 
	C201.106125,211.626755 202.505753,211.388153 203.911652,211.458389 
	C203.945190,212.178024 203.972443,212.588806 203.628983,213.138550 
	C201.015930,213.689453 199.281998,214.244965 199.346863,217.281845 
	C199.598526,229.064819 199.606979,240.852997 199.790466,252.871323 
	C200.583145,253.075180 201.291306,253.046951 202.399658,252.964310 
	C204.395950,252.706879 205.992065,252.503830 207.898132,252.427185 
	C208.806671,252.328705 209.405243,252.103821 210.376373,251.863129 
	C212.539154,251.383118 214.329391,250.918930 216.119629,250.454742 
	C216.572540,250.786682 217.025452,251.118607 217.755844,251.768005 
	C212.031906,253.626862 206.030487,255.168243 199.412811,256.867920 
	C199.412811,265.593323 199.412811,274.818054 199.454224,284.507538 
	C198.682434,286.068817 197.869202,287.165344 197.055969,288.261902 
	C196.570557,287.405090 196.085129,286.548279 195.732025,285.333801 
z"/>
<path fill="#ECDFDF" opacity="1.000000" stroke="none" 
	d="
M135.884155,127.688019 
	C136.833405,130.096634 137.121704,132.560776 138.480301,134.045700 
	C143.186783,139.189926 148.213577,144.047638 153.245316,148.882339 
	C154.280640,149.877136 155.863281,150.302277 157.603027,151.148636 
	C158.313187,151.863434 158.613968,152.419586 158.872559,153.336273 
	C167.768768,162.754715 176.704529,171.815231 185.665833,180.850418 
	C185.832657,181.018631 186.302795,180.885971 187.057922,181.167236 
	C185.940399,182.642044 184.396347,183.843292 182.851318,184.688690 
	C182.530411,183.603424 182.387222,182.699020 181.864136,182.170853 
	C173.903107,174.132523 165.914551,166.120895 157.854401,158.182236 
	C157.151413,157.489853 155.901215,157.353058 154.630005,156.830948 
	C153.810699,156.437134 153.266556,156.170563 152.866852,155.548157 
	C153.071564,154.727539 153.360687,154.029648 153.159012,153.831665 
	C146.170044,146.970383 139.134766,140.156265 131.891815,133.044495 
	C131.306625,132.448578 130.935715,132.143616 130.564804,131.838654 
	C132.281158,130.323975 133.997528,128.809296 135.884155,127.688019 
z"/>
<path fill="#E7D3D3" opacity="1.000000" stroke="none" 
	d="
M146.031876,269.722748 
	C157.039886,274.688751 167.908966,280.007416 179.131744,284.428162 
	C183.025742,285.962036 187.796402,285.270416 192.599030,285.523926 
	C193.597687,288.931549 191.044617,288.254181 189.231644,288.124390 
	C176.320755,287.199951 164.466553,282.801025 153.121780,276.851593 
	C150.782120,275.624573 148.609802,274.078491 146.176636,272.012512 
	C146.005890,270.804626 146.018875,270.263702 146.031876,269.722748 
z"/>
<path fill="#E4CCCC" opacity="1.000000" stroke="none" 
	d="
M212.308960,284.690857 
	C225.966522,282.677155 237.968796,277.253082 249.757706,270.117584 
	C250.660294,270.626404 251.025177,270.935394 251.390076,271.244385 
	C240.884109,279.586365 228.490173,283.701355 215.749023,286.928864 
	C214.765213,287.178070 213.344757,285.703552 212.308960,284.690857 
z"/>
<path fill="#E7D3D3" opacity="1.000000" stroke="none" 
	d="
M153.614502,113.946655 
	C153.988464,114.387398 154.024399,114.919243 154.077942,115.850540 
	C148.648712,120.191803 143.201874,124.133621 137.234100,127.911575 
	C136.340698,127.451683 135.968231,127.155647 135.595749,126.859619 
	C141.489319,122.585663 147.382904,118.311714 153.614502,113.946655 
z"/>
<path fill="#EADADA" opacity="1.000000" stroke="none" 
	d="
M278.333801,151.624878 
	C273.618866,145.936981 269.334167,140.381226 265.046875,134.142120 
	C265.052246,133.220306 265.060181,132.981873 265.068085,132.743454 
	C271.844330,137.488724 276.440369,143.804459 278.333801,151.624878 
z"/>
<path fill="#E7D3D3" opacity="1.000000" stroke="none" 
	d="
M130.291199,131.987701 
	C130.935715,132.143616 131.306625,132.448578 131.753052,133.334442 
	C130.025986,135.904297 128.223419,137.893280 126.420868,139.882248 
	C126.318047,139.449692 126.215225,139.017136 125.947014,137.938446 
	C127.193619,135.573776 128.605621,133.855255 130.291199,131.987701 
z"/>
<path fill="#EADADA" opacity="1.000000" stroke="none" 
	d="
M251.724335,271.093445 
	C251.025177,270.935394 250.660294,270.626404 250.099762,270.015015 
	C251.137756,268.873047 252.371384,268.033417 253.775131,267.559814 
	C253.316360,268.931396 252.687469,269.936951 251.724335,271.093445 
z"/>
<path fill="#E4CCCC" opacity="1.000000" stroke="none" 
	d="
M253.680176,266.896240 
	C254.533600,266.135040 255.386993,265.373810 256.585327,264.573547 
	C257.431549,264.943726 257.932892,265.352997 258.434204,265.762268 
	C257.610016,266.527039 256.785828,267.291809 255.381927,267.935303 
	C254.428223,267.508148 254.054199,267.202179 253.680176,266.896240 
z"/>
<path fill="#ECDFDF" opacity="1.000000" stroke="none" 
	d="
M145.774323,269.422974 
	C146.018875,270.263702 146.005890,270.804626 145.971252,271.750824 
	C144.773972,271.238464 143.598373,270.320862 142.737289,269.162048 
	C143.873474,268.988312 144.695129,269.055756 145.774323,269.422974 
z"/>
<path fill="#E7D3D3" opacity="1.000000" stroke="none" 
	d="
M138.218658,263.545471 
	C139.056885,264.176483 139.895096,264.807495 140.501373,265.716309 
	C139.475235,266.007965 138.681030,266.021881 137.886810,266.035767 
	C137.594284,265.870331 137.301758,265.704895 137.179840,265.103668 
	C137.639862,264.293732 137.929260,263.919617 138.218658,263.545471 
z"/>
<path fill="#E2C9C9" opacity="1.000000" stroke="none" 
	d="
M265.044220,132.443039 
	C265.060181,132.981873 265.052246,133.220306 264.982971,133.811356 
	C264.497559,133.904816 264.073456,133.645660 263.285583,133.274017 
	C262.984406,132.514862 263.046997,131.868149 263.155884,130.899521 
	C263.808228,131.099289 264.414276,131.620956 265.044220,132.443039 
z"/>
<path fill="#ECDFDF" opacity="1.000000" stroke="none" 
	d="
M138.110199,266.359131 
	C138.681030,266.021881 139.475235,266.007965 140.666275,265.985718 
	C141.386093,266.150238 141.709091,266.323120 141.544342,266.917542 
	C140.628403,267.464203 140.200211,267.589355 139.720703,267.743896 
	C139.669418,267.773254 139.438721,267.799377 139.438721,267.799377 
	C139.070343,267.427094 138.701950,267.054810 138.110199,266.359131 
z"/>
<path fill="#E7D3D3" opacity="1.000000" stroke="none" 
	d="
M126.429367,254.397858 
	C126.272797,253.431839 126.540550,252.925674 126.921982,252.156525 
	C127.488449,252.359039 127.941231,252.824524 128.464600,253.611435 
	C127.974678,254.241150 127.414185,254.549438 126.429367,254.397858 
z"/>
<path fill="#E7D3D3" opacity="1.000000" stroke="none" 
	d="
M139.772003,267.714508 
	C140.200211,267.589355 140.628403,267.464203 141.698792,267.150391 
	C142.340973,266.961761 142.425735,267.013092 142.280502,267.609589 
	C142.073242,268.576996 142.011215,268.947937 141.949188,269.318848 
	C141.365555,268.974823 140.781937,268.630798 139.883026,268.100250 
	C139.567764,267.913727 139.772003,267.714508 139.772003,267.714508 
z"/>
<path fill="#901D1D" opacity="1.000000" stroke="none" 
	d="
M139.720703,267.743896 
	C139.772003,267.714508 139.567764,267.913727 139.436432,267.855164 
	C139.305099,267.796631 139.432083,267.758514 139.435394,267.778931 
	C139.438721,267.799377 139.669418,267.773254 139.720703,267.743896 
z"/>
<path fill="#ECDFDF" opacity="1.000000" stroke="none" 
	d="
M138.079803,263.309509 
	C137.929260,263.919617 137.639862,264.293732 137.061111,264.875610 
	C136.444016,264.328979 136.116272,263.574615 136.418472,262.635681 
	C137.345932,262.658569 137.643448,262.866089 138.079803,263.309509 
z"/>
<path fill="#EAD9D9" opacity="1.000000" stroke="none" 
	d="
M279.393616,238.567566 
	C278.952484,237.686264 278.991974,236.933502 279.031464,236.180740 
	C279.657623,236.412491 280.283783,236.644241 280.732452,237.423264 
	C280.328064,238.212387 280.101135,238.454239 279.393616,238.567566 
z"/>
<path fill="#ECDFDF" opacity="1.000000" stroke="none" 
	d="
M142.314789,269.468506 
	C142.011215,268.947937 142.073242,268.576996 142.285217,267.658936 
	C142.850525,267.503937 143.265915,267.896149 143.370392,268.606628 
	C142.933136,269.155975 142.806763,269.387054 142.314789,269.468506 
z"/>
<path fill="#EADADA" opacity="1.000000" stroke="none" 
	d="
M253.511993,267.212311 
	C254.054199,267.202179 254.428223,267.508148 255.000610,268.120667 
	C254.916214,268.530090 254.633453,268.632874 254.141632,268.335785 
	C253.736328,267.800079 253.540070,267.664246 253.511993,267.212311 
z"/>
<path fill="#ECDFDF" opacity="1.000000" stroke="none" 
	d="
M135.445587,127.266663 
	C135.968231,127.155647 136.340698,127.451683 136.912033,128.046127 
	C136.896103,128.453690 136.681320,128.562851 136.267181,128.370544 
	C135.810349,127.937309 135.552887,127.805504 135.445587,127.266663 
z"/>
<path fill="#911F1F" opacity="1.000000" stroke="none" 
	d="
M199.971313,177.054108 
	C199.971313,164.207306 199.971313,151.360504 199.971313,137.893402 
	C203.150452,138.247742 206.217850,138.589645 209.654572,138.906189 
	C226.520096,144.731476 232.485916,148.055069 237.143204,154.146606 
	C228.633163,162.700317 220.116409,171.320160 211.494598,179.833603 
	C210.646271,180.671280 209.153488,180.856323 207.480927,181.665405 
	C206.020981,181.429855 205.039948,180.873138 204.118713,179.915939 
	C202.776108,178.695007 201.373718,177.874557 199.971313,177.054108 
z"/>
<path fill="#8F1C1C" opacity="1.000000" stroke="none" 
	d="
M199.705948,252.639221 
	C199.606979,240.852997 199.598526,229.064819 199.346863,217.281845 
	C199.281998,214.244965 201.015930,213.689453 203.930756,213.180923 
	C205.248718,212.453522 205.894165,211.822708 207.065918,211.127869 
	C208.295380,210.974411 208.998550,210.885025 209.701736,210.795624 
	C218.857635,219.543503 228.013550,228.291367 238.451126,238.263809 
	C230.489243,242.557678 223.586380,246.280411 216.401581,250.228928 
	C214.329391,250.918930 212.539154,251.383118 210.190948,251.739777 
	C208.951385,251.855087 208.269775,252.077957 207.588181,252.300812 
	C205.992065,252.503830 204.395950,252.706879 202.142792,252.811111 
	C200.892487,252.687943 200.299210,252.663589 199.705948,252.639221 
z"/>
<path fill="#901E1E" opacity="1.000000" stroke="none" 
	d="
M243.153290,159.779297 
	C250.962341,169.955688 255.159714,181.020081 255.429688,194.173004 
	C243.004547,194.173004 230.919891,194.221100 218.837570,194.075378 
	C217.937943,194.064545 216.681412,192.837326 216.235886,191.876465 
	C214.996399,189.203308 214.096954,186.372498 212.991730,183.412506 
	C213.282333,183.025040 213.618835,182.448944 214.073242,181.989471 
	C222.480347,173.488525 230.901505,165.001465 240.623932,155.196152 
	C241.522278,156.862900 242.228104,158.172440 243.153290,159.779297 
z"/>
<path fill="#911F1F" opacity="1.000000" stroke="none" 
	d="
M231.004944,197.498962 
	C239.273834,197.498840 247.043411,197.498840 255.416580,197.498840 
	C254.861206,212.372421 249.487381,224.497833 240.091949,234.731918 
	C230.835068,225.430557 221.851151,216.403473 212.698257,207.206589 
	C212.662048,207.451401 212.680374,207.294922 212.708755,207.140274 
	C214.650223,196.560303 222.340729,196.591766 231.004944,197.498962 
z"/>
<path fill="#901D1D" opacity="1.000000" stroke="none" 
	d="
M209.410614,210.537857 
	C208.998550,210.885025 208.295380,210.974411 206.738922,211.078629 
	C205.225555,211.112152 204.565460,211.130844 203.905365,211.149536 
	C202.505753,211.388153 201.106125,211.626755 199.127060,211.761749 
	C197.432892,211.696686 196.318161,211.735229 194.837555,211.685944 
	C193.732697,211.474518 192.993729,211.350891 192.254776,211.227280 
	C189.406631,208.811401 186.558487,206.395523 183.358337,204.002487 
	C183.006332,204.025330 183.042953,204.010086 183.118652,203.616760 
	C182.805084,203.144226 182.415833,203.065033 182.017273,202.979996 
	C182.007965,202.974167 182.005447,202.947128 182.005447,202.947128 
	C181.597107,198.946976 181.188766,194.946838 180.394257,190.606537 
	C180.956161,188.525787 181.904236,186.785172 182.852310,185.044556 
	C184.396347,183.843292 185.940399,182.642044 187.013748,181.186874 
	C186.543045,180.932953 186.452606,180.967133 186.340057,181.386337 
	C186.642670,181.861755 187.057861,181.917984 187.473038,181.974213 
	C187.299118,181.512024 187.125198,181.049850 187.055450,180.275055 
	C188.719131,179.507660 190.278625,179.052902 192.107712,178.635773 
	C193.583603,178.770737 194.789886,178.868088 195.996185,178.965424 
	C196.745697,178.983231 197.495193,179.001022 198.952682,179.131958 
	C201.126755,179.602203 202.592834,179.959305 204.058929,180.316422 
	C205.039948,180.873138 206.020981,181.429855 207.298050,181.994965 
	C216.390106,190.364700 216.684174,198.069992 208.702469,207.871979 
	C208.364853,208.286591 208.959259,209.460098 209.410614,210.537857 
z"/>
<path fill="#901C1C" opacity="1.000000" stroke="none" 
	d="
M186.452606,180.967133 
	C186.452606,180.967133 186.543045,180.932953 186.587219,180.913330 
	C186.302795,180.885971 185.832657,181.018631 185.665833,180.850418 
	C176.704529,171.815231 167.768768,162.754715 159.160538,153.183655 
	C160.782181,151.509384 162.073639,150.348267 163.662659,149.081299 
	C164.579514,148.417160 165.198822,147.858826 166.088699,147.288391 
	C166.773087,146.947144 167.186920,146.617996 167.957001,146.180939 
	C168.547333,145.374161 168.781403,144.675278 169.015472,143.976395 
	C169.015472,143.976395 169.001816,144.000076 169.121170,144.457275 
	C173.167465,143.335846 177.094406,141.757202 181.403122,140.193939 
	C183.147964,139.331451 184.511063,138.453598 186.231384,137.767700 
	C187.396927,137.964050 188.205215,137.968414 189.013519,137.972794 
	C191.259232,138.086960 193.504944,138.201126 196.166138,138.336411 
	C196.166138,150.691986 196.166138,162.898880 195.787476,175.649719 
	C194.218567,176.995163 193.028336,177.796646 191.838120,178.598145 
	C190.278625,179.052902 188.719131,179.507660 186.931641,180.371033 
	C186.703644,180.779648 186.452606,180.967133 186.452606,180.967133 
z"/>
<path fill="#DAB8B8" opacity="1.000000" stroke="none" 
	d="
M204.118713,179.915939 
	C202.592834,179.959305 201.126755,179.602203 199.322861,179.069687 
	C199.231964,178.434677 199.478867,177.975082 199.848541,177.284805 
	C201.373718,177.874557 202.776108,178.695007 204.118713,179.915939 
z"/>
<path fill="#DAB8B8" opacity="1.000000" stroke="none" 
	d="
M192.107712,178.635773 
	C193.028336,177.796646 194.218567,176.995163 195.714966,176.115982 
	C196.023209,176.770096 196.025299,177.501923 196.011780,178.599579 
	C194.789886,178.868088 193.583603,178.770737 192.107712,178.635773 
z"/>
<path fill="#DAB8B8" opacity="1.000000" stroke="none" 
	d="
M189.005936,137.636383 
	C188.205215,137.968414 187.396927,137.964050 186.186020,137.579376 
	C185.760864,136.933167 185.812759,136.682663 185.939087,136.447571 
	C186.692947,136.239685 187.446823,136.031799 188.591980,135.888733 
	C188.988312,136.402328 188.993332,136.851151 189.005936,137.636383 
z"/>
<path fill="#ECDFDF" opacity="1.000000" stroke="none" 
	d="
M181.021362,140.178558 
	C177.094406,141.757202 173.167465,143.335846 169.107666,144.459564 
	C170.738556,142.650558 172.376373,141.067429 174.302414,140.008591 
	C176.125229,139.006516 178.250549,138.554672 180.630249,138.305618 
	C181.018906,139.226471 181.020126,139.702515 181.021362,140.178558 
z"/>
<path fill="#E7D3D3" opacity="1.000000" stroke="none" 
	d="
M181.403107,140.193939 
	C181.020126,139.702515 181.018906,139.226471 181.007370,138.393524 
	C182.427673,137.513672 183.858276,136.990723 185.613983,136.457672 
	C185.812759,136.682663 185.760864,136.933167 185.828781,137.387421 
	C184.511063,138.453598 183.147964,139.331451 181.403107,140.193939 
z"/>
<path fill="#E7D3D3" opacity="1.000000" stroke="none" 
	d="
M163.365112,149.187134 
	C162.073639,150.348267 160.782181,151.509384 159.202728,152.823120 
	C158.613968,152.419586 158.313187,151.863434 157.956833,150.991043 
	C158.978058,149.683441 160.054840,148.692093 161.655304,147.924103 
	C162.574356,148.494034 162.969727,148.840591 163.365112,149.187134 
z"/>
<path fill="#E7D3D3" opacity="1.000000" stroke="none" 
	d="
M167.600754,146.288849 
	C167.186920,146.617996 166.773087,146.947144 165.562134,147.185516 
	C164.059433,147.010742 163.353882,146.926758 162.648331,146.842773 
	C163.497711,146.167465 164.347076,145.492157 165.763306,145.071716 
	C166.753677,145.647339 167.177216,145.968094 167.600754,146.288849 
z"/>
<path fill="#ECDFDF" opacity="1.000000" stroke="none" 
	d="
M162.450012,146.872925 
	C163.353882,146.926758 164.059433,147.010742 165.291565,147.197617 
	C165.198822,147.858826 164.579514,148.417160 163.662659,149.081314 
	C162.969727,148.840591 162.574356,148.494034 161.957703,147.819199 
	C161.817307,147.215332 161.989059,147.019379 162.450012,146.872925 
z"/>
<path fill="#ECDFDF" opacity="1.000000" stroke="none" 
	d="
M167.957001,146.180939 
	C167.177216,145.968094 166.753677,145.647339 166.087021,145.009369 
	C166.800003,144.185913 167.756119,143.679672 168.863861,143.574905 
	C168.781403,144.675278 168.547333,145.374161 167.957001,146.180939 
z"/>
<path fill="#8F1B1B" opacity="1.000000" stroke="none" 
	d="
M195.721512,214.043564 
	C195.876892,226.553635 196.032272,239.063690 195.814423,252.186447 
	C193.948395,252.819427 192.455597,252.839722 190.962814,252.860031 
	C189.228531,252.518433 187.494263,252.176834 185.059814,251.647949 
	C180.217987,249.919800 176.102890,248.299713 171.915497,246.895279 
	C170.903122,246.555725 169.651764,246.928604 168.510315,246.973877 
	C168.510315,246.973877 168.399094,246.799988 168.390076,246.774139 
	C167.715897,245.704559 167.247604,244.430099 166.347351,243.661789 
	C163.969696,241.632645 161.404770,239.822922 159.241974,238.175385 
	C168.440643,229.010773 177.362305,220.122147 186.566177,210.952347 
	C187.525848,211.330688 189.411987,212.074295 191.992584,213.032471 
	C193.464142,213.425247 194.241272,213.603424 195.076096,213.926117 
	C195.133804,214.070618 195.432327,214.158173 195.432327,214.158173 
	C195.432327,214.158173 195.721512,214.043564 195.721512,214.043564 
z"/>
<path fill="#ECDFDF" opacity="1.000000" stroke="none" 
	d="
M168.406082,247.363739 
	C169.651764,246.928604 170.903122,246.555725 171.915497,246.895279 
	C176.102890,248.299713 180.217987,249.919800 184.677887,251.666229 
	C184.967621,252.437897 184.939102,253.003998 184.873932,253.993652 
	C179.325455,252.196014 173.813644,249.974808 168.406082,247.363739 
z"/>
<path fill="#8F1C1C" opacity="1.000000" stroke="none" 
	d="
M126.289673,140.168808 
	C128.223419,137.893280 130.025986,135.904297 131.967316,133.625381 
	C139.134766,140.156265 146.170044,146.970383 153.159012,153.831665 
	C153.360687,154.029648 153.071564,154.727539 152.596558,155.669952 
	C151.501358,157.102615 150.820908,158.057663 150.140457,159.012711 
	C141.888763,169.007309 138.400803,180.787933 137.450287,193.819641 
	C127.546249,193.819641 117.856209,193.819641 107.680092,193.819641 
	C107.901588,173.763168 114.427078,156.227829 126.289673,140.168808 
z"/>
<path fill="#901C1C" opacity="1.000000" stroke="none" 
	d="
M182.851318,184.688690 
	C181.904236,186.785172 180.956161,188.525787 180.007782,190.645325 
	C179.172989,192.071548 178.353027,194.017242 177.501877,194.030991 
	C165.268372,194.228622 153.030685,194.166122 140.469131,194.166122 
	C140.717667,181.397507 144.723679,170.595978 152.277954,160.388641 
	C153.403336,158.922745 154.154251,157.940475 154.905182,156.958206 
	C155.901215,157.353058 157.151413,157.489853 157.854401,158.182236 
	C165.914551,166.120895 173.903107,174.132523 181.864136,182.170853 
	C182.387222,182.699020 182.530411,183.603424 182.851318,184.688690 
z"/>
<path fill="#911F1F" opacity="1.000000" stroke="none" 
	d="
M183.013077,204.009888 
	C183.762756,209.152710 179.780457,211.578964 176.850235,214.582352 
	C170.225220,221.372742 163.556763,228.120743 156.962982,234.828018 
	C148.113937,228.660904 140.664215,211.729004 140.682007,197.475784 
	C142.735046,197.475784 144.801270,197.475784 146.867508,197.475784 
	C155.360672,197.475769 163.864670,197.732010 172.342728,197.374237 
	C177.009521,197.177307 180.447098,197.807266 181.607986,203.037277 
	C182.005447,202.947128 182.007965,202.974167 181.818542,203.405273 
	C182.100388,203.894287 182.571671,203.952179 183.042953,204.010086 
	C183.042953,204.010086 183.006332,204.025330 183.013077,204.009888 
z"/>
<path fill="#E7D3D3" opacity="1.000000" stroke="none" 
	d="
M154.630005,156.830948 
	C154.154251,157.940475 153.403336,158.922745 152.385635,160.066650 
	C151.657578,159.862778 151.196304,159.497269 150.437744,159.072235 
	C150.820908,158.057663 151.501358,157.102615 152.452118,156.025787 
	C153.266556,156.170563 153.810699,156.437134 154.630005,156.830948 
z"/>
<path fill="#F0E6E6" opacity="1.000000" stroke="none" 
	d="
M195.018372,213.781616 
	C194.241272,213.603424 193.464142,213.425247 192.349564,213.033020 
	C192.051895,212.553741 192.091690,212.288513 192.193115,211.625275 
	C192.993729,211.350891 193.732697,211.474518 194.826019,212.191116 
	C195.126389,213.116592 195.072372,213.449112 195.018372,213.781616 
z"/>
<path fill="#E2C9C9" opacity="1.000000" stroke="none" 
	d="
M191.202179,253.106049 
	C192.455597,252.839722 193.948395,252.819427 195.809174,252.691711 
	C194.598633,252.840210 193.020081,253.096146 191.202179,253.106049 
z"/>
<path fill="#C99393" opacity="1.000000" stroke="none" 
	d="
M195.076080,213.926117 
	C195.072372,213.449112 195.126389,213.116592 195.191925,212.278931 
	C196.318161,211.735229 197.432892,211.696686 198.774170,211.815399 
	C198.068542,212.512268 197.136353,213.051865 195.962830,213.817505 
	C195.721512,214.043564 195.432327,214.158173 195.432327,214.158173 
	C195.432327,214.158173 195.133804,214.070618 195.076080,213.926117 
z"/>
<path fill="#C99393" opacity="1.000000" stroke="none" 
	d="
M203.911652,211.458389 
	C204.565460,211.130844 205.225555,211.112152 206.212646,211.142670 
	C205.894165,211.822708 205.248718,212.453522 204.301483,213.041962 
	C203.972443,212.588806 203.945190,212.178024 203.911652,211.458389 
z"/>
<path fill="#C99393" opacity="1.000000" stroke="none" 
	d="
M199.790466,252.871307 
	C200.299210,252.663589 200.892487,252.687943 201.742615,252.865509 
	C201.291306,253.046951 200.583145,253.075180 199.790466,252.871307 
z"/>
<path fill="#C99393" opacity="1.000000" stroke="none" 
	d="
M207.898132,252.427200 
	C208.269775,252.077957 208.951385,251.855087 209.818405,251.755585 
	C209.405243,252.103821 208.806671,252.328705 207.898132,252.427200 
z"/>
<path fill="#E7D3D3" opacity="1.000000" stroke="none" 
	d="
M186.827454,180.683655 
	C187.125198,181.049850 187.299118,181.512024 187.473038,181.974213 
	C187.057861,181.917984 186.642670,181.861755 186.340057,181.386337 
	C186.452606,180.967133 186.703644,180.779648 186.827454,180.683655 
z"/>
<path fill="#ECDFDF" opacity="1.000000" stroke="none" 
	d="
M183.118652,203.616760 
	C182.571671,203.952179 182.100388,203.894287 181.827850,203.411102 
	C182.415833,203.065033 182.805084,203.144226 183.118652,203.616760 
z"/>
</svg>